<mxfile host="app.diagrams.net" modified="2024-05-16T15:36:01.094Z" agent="Mozilla/5.0 (Windows NT 10.0; Win64; x64) AppleWebKit/537.36 (KHTML, like Gecko) Chrome/124.0.0.0 Whale/3.26.244.14 Safari/537.36" version="24.4.0" etag="TGc6-gM53bAjATz8_WYO" type="github">
  <diagram name="페이지-1" id="m5DKcFgEdNLpF0cnuEYt">
    <mxGraphModel>
      <root>
        <mxCell id="0" />
        <mxCell id="1" parent="0" />
      </root>
    </mxGraphModel>
  </diagram>
</mxfile>
